<?xml version="1.0" standalone="no"?>
<!DOCTYPE svg PUBLIC "-//W3C//DTD SVG 20010904//EN"
 "http://www.w3.org/TR/2001/REC-SVG-20010904/DTD/svg10.dtd">
<svg version="1.0" xmlns="http://www.w3.org/2000/svg"
 width="500.000000pt" height="500.000000pt" viewBox="0 0 500.000000 500.000000"
 preserveAspectRatio="xMidYMid meet">

<g transform="translate(0.000000,500.000000) scale(0.100000,-0.100000)"
fill="#000000" stroke="none">
<path d="M2355 4528 c-169 -14 -308 -43 -480 -99 -221 -71 -526 -239 -635
-347 -26 -26 -82 -78 -125 -116 -139 -125 -308 -344 -413 -536 -115 -211 -205
-496 -232 -735 -13 -117 -13 -397 0 -505 55 -452 267 -888 590 -1209 207 -207
250 -242 424 -345 221 -132 479 -220 781 -267 124 -20 448 -17 580 5 386 63
731 214 1017 445 164 132 366 363 477 544 81 133 198 403 226 525 97 412 97
702 0 1114 -2 10 -20 66 -40 125 -77 225 -235 499 -387 673 -210 238 -423 402
-693 531 -235 112 -434 167 -702 194 -147 15 -234 16 -388 3z m540 -66 c226
-45 355 -87 541 -177 557 -269 964 -776 1105 -1375 26 -112 48 -267 49 -360 2
-115 1 -120 -15 -83 -7 17 -27 39 -44 48 -27 13 -35 14 -65 1 -60 -25 -65
-111 -9 -156 46 -36 105 -15 122 44 8 25 9 17 10 -47 1 -89 -19 -267 -29 -267
-4 0 -13 14 -20 30 -14 35 -37 50 -74 50 -38 0 -55 -10 -72 -42 -18 -36 -5
-89 29 -113 31 -21 83 -19 107 5 13 13 20 15 20 7 0 -18 -38 -162 -57 -217 -8
-25 -17 -52 -20 -60 -3 -10 -9 -5 -17 15 -31 70 -101 90 -143 40 -31 -36 -29
-75 5 -113 30 -34 66 -41 103 -22 10 6 19 8 19 5 0 -14 -55 -136 -88 -195
l-35 -64 -18 41 c-27 64 -82 82 -131 43 -34 -26 -39 -51 -18 -97 19 -43 58
-66 96 -57 13 3 24 2 24 -2 0 -5 -37 -58 -82 -119 -80 -108 -82 -109 -88 -80
-19 91 -92 126 -145 69 -49 -53 -18 -136 56 -151 l42 -8 -98 -93 c-53 -50
-101 -92 -106 -92 -5 0 -8 12 -7 28 4 58 -47 107 -101 96 -86 -18 -78 -149 11
-172 l31 -8 -49 -35 c-57 -41 -181 -119 -189 -119 -2 0 -2 13 1 30 8 35 -11
87 -37 100 -29 16 -84 12 -101 -7 -38 -45 -20 -132 31 -148 34 -10 25 -20 -46
-53 -139 -63 -208 -83 -175 -50 26 26 2 106 -37 128 -52 27 -121 -11 -121 -67
0 -37 33 -89 62 -99 22 -7 22 -7 -7 -16 -56 -16 -248 -58 -252 -55 -2 2 4 18
13 35 29 59 -14 132 -77 132 -76 0 -107 -91 -50 -148 l30 -29 -61 -7 c-34 -3
-101 -6 -151 -6 l-90 0 27 21 c38 30 37 90 -3 130 -36 35 -69 37 -105 4 -32
-30 -35 -81 -6 -118 11 -14 20 -28 20 -31 0 -8 -255 20 -273 31 -4 2 6 17 23
33 33 31 37 57 15 100 -28 53 -91 67 -132 28 -27 -25 -31 -74 -8 -104 35 -46
15 -45 -141 7 -116 39 -152 59 -104 59 70 0 81 128 13 159 -51 23 -94 7 -113
-44 -9 -23 -7 -35 8 -66 11 -22 18 -39 16 -39 -8 0 -183 88 -230 116 l-48 28
32 7 c88 18 104 112 28 163 -34 22 -58 20 -91 -5 -23 -19 -26 -28 -23 -63 3
-23 8 -50 13 -60 20 -46 -155 101 -303 254 l-44 45 33 7 c38 7 79 49 79 79 0
27 -59 99 -80 99 -30 0 -69 -40 -80 -81 l-11 -40 -42 53 c-48 59 -85 110 -109
149 l-17 26 39 -1 c28 0 46 6 64 23 33 31 33 53 1 108 -21 35 -31 43 -55 43
-32 0 -80 -48 -80 -81 0 -42 -22 -13 -80 107 -56 114 -69 157 -38 126 15 -15
68 -15 89 1 36 27 40 52 18 106 -21 50 -30 56 -74 51 -28 -3 -46 -20 -63 -60
l-14 -35 -24 65 c-13 36 -30 97 -39 135 -9 39 -18 79 -22 90 -5 19 -4 19 19
-2 31 -30 86 -30 116 -3 19 18 21 28 16 63 -12 77 -19 87 -63 87 -41 0 -72
-25 -87 -73 -7 -20 -8 -20 -16 8 -4 17 -13 101 -20 187 -47 615 189 1224 636
1638 33 30 82 78 110 106 114 114 405 274 641 352 123 41 278 77 401 92 122
15 486 4 599 -18z m1633 -2013 c4 -34 -20 -54 -47 -39 -38 20 -18 74 24 68 13
-2 21 -12 23 -29z m-3868 -340 c9 -15 8 -24 -1 -35 -28 -33 -80 -3 -59 35 6
12 19 21 30 21 11 0 24 -9 30 -21z m3835 -14 c0 -27 -3 -30 -30 -30 -21 0 -31
5 -33 18 -5 25 17 49 42 45 16 -2 21 -10 21 -33z m-3751 -311 c35 -13 7 -69
-31 -62 -19 3 -28 30 -19 54 6 15 24 18 50 8z m3657 -10 c9 -11 10 -20 2 -32
-15 -24 -44 -27 -59 -7 -28 38 27 75 57 39z m-3503 -306 c30 -30 -4 -77 -41
-57 -29 17 -15 69 18 69 6 0 16 -5 23 -12z m3346 -10 c20 -28 4 -50 -33 -46
-29 3 -39 31 -21 53 17 21 36 18 54 -7z m-3127 -284 c8 -22 -10 -49 -32 -49
-22 0 -40 27 -32 49 8 21 56 21 64 0z m2923 12 c0 -2 3 -11 6 -19 5 -14 -20
-47 -36 -47 -5 0 -16 7 -24 16 -22 21 -4 54 29 54 14 0 25 -2 25 -4z m-252
-268 c2 -20 -2 -28 -19 -33 -29 -9 -53 15 -44 44 10 34 59 25 63 -11z m-2303
-97 c0 -34 -30 -51 -51 -29 -25 24 -10 60 24 56 21 -2 27 -8 27 -27z m2006
-77 c17 -21 0 -49 -32 -49 -24 0 -36 23 -25 51 7 19 40 18 57 -2z m-1703 -66
c30 -30 -4 -77 -41 -57 -29 17 -15 69 18 69 6 0 16 -5 23 -12z m1386 -77 c8
-13 -3 -38 -20 -45 -37 -14 -64 26 -38 55 16 18 44 13 58 -10z m-1044 -42 c23
-41 -38 -68 -63 -27 -8 12 -7 21 2 32 19 22 48 20 61 -5z m694 -25 c29 -28
-10 -71 -46 -52 -21 10 -23 39 -6 56 16 16 33 15 52 -4z m-346 -36 c4 -33 -31
-49 -55 -25 -24 24 -8 59 25 55 21 -2 28 -9 30 -30z"/>
<path d="M2403 4455 c-11 -8 -24 -31 -27 -51 -6 -29 -3 -42 19 -70 34 -44 83
-47 122 -8 21 21 24 32 20 61 -12 71 -80 106 -134 68z m77 -46 c14 -26 -4 -51
-34 -47 -21 3 -32 28 -22 54 8 21 44 17 56 -7z"/>
<path d="M2749 4431 c-32 -33 -36 -58 -14 -100 27 -54 108 -64 140 -18 19 27
19 60 0 97 -29 57 -81 65 -126 21z m86 -42 c5 -13 1 -27 -8 -36 -21 -21 -57
-8 -57 21 0 12 3 26 7 29 15 15 52 6 58 -14z"/>
<path d="M2070 4417 c-56 -28 -63 -95 -15 -143 32 -32 78 -32 110 1 41 40 25
118 -30 143 -32 15 -34 15 -65 -1z m65 -57 c8 -27 -12 -52 -39 -48 -21 3 -32
28 -22 54 8 22 54 18 61 -6z"/>
<path d="M3089 4351 c-35 -35 -36 -57 -6 -102 29 -43 64 -56 103 -38 53 26 57
97 9 145 -33 32 -70 31 -106 -5z m72 -21 c23 -13 25 -43 3 -61 -31 -26 -70 25
-44 56 15 18 16 18 41 5z"/>
<path d="M1733 4310 c-72 -29 -47 -151 34 -166 27 -5 37 -1 63 24 34 34 37 59
15 103 -22 42 -66 58 -112 39z m67 -60 c7 -14 6 -23 -6 -34 -19 -20 -29 -20
-48 0 -20 19 -20 23 0 45 18 20 40 15 54 -11z"/>
<path d="M2305 4250 c-271 -30 -573 -142 -805 -298 -103 -70 -230 -174 -240
-197 -3 -6 -33 -43 -67 -81 -117 -131 -202 -255 -278 -409 -84 -170 -121 -275
-161 -455 -26 -117 -28 -140 -28 -360 -1 -250 7 -311 59 -500 35 -124 69 -210
137 -343 81 -160 167 -278 360 -498 33 -38 171 -146 258 -203 94 -62 309 -165
415 -199 322 -104 641 -122 955 -55 380 81 725 287 986 589 110 127 183 239
259 394 121 249 173 460 179 720 3 143 3 148 -4 45 -6 -106 -7 -101 -6 67 1
99 -2 177 -5 171 -3 -5 -9 16 -13 47 -3 31 -4 61 -1 66 4 5 1 9 -6 9 -8 0 -10
11 -6 35 3 20 2 33 -3 30 -10 -6 -23 42 -14 57 4 5 2 13 -3 17 -5 3 -19 40
-33 81 -13 41 -34 101 -47 133 -13 32 -21 63 -17 69 4 6 3 8 -3 5 -5 -3 -22
19 -36 49 -15 31 -23 53 -17 49 6 -3 7 0 4 9 -3 9 -10 14 -15 11 -11 -8 -31
33 -23 47 5 7 3 8 -6 3 -10 -6 -12 -4 -7 9 4 9 3 15 -2 12 -8 -5 -61 65 -61
81 0 5 5 1 11 -7 9 -13 10 -13 6 0 -2 8 -8 15 -13 15 -14 0 -34 15 -34 26 0 6
6 7 13 3 7 -4 9 -3 4 2 -5 5 -14 9 -20 9 -5 0 -12 6 -15 14 -3 8 0 11 7 7 17
-11 13 0 -6 15 -14 12 -16 12 -9 -1 4 -8 -11 5 -33 30 -40 45 -52 68 -28 54 6
-4 -6 12 -28 35 -21 22 -41 41 -44 41 -3 0 10 -16 29 -35 68 -70 22 -33 -70
57 -87 85 -95 97 -30 44 14 -12 7 -2 -15 22 -22 23 -45 40 -52 37 -8 -2 -53
24 -101 59 -48 35 -98 69 -110 75 -13 7 -21 15 -19 18 6 5 69 -34 147 -92 76
-57 93 -64 41 -16 -108 97 -371 240 -551 299 -105 35 -268 70 -372 82 -109 11
-307 11 -413 0z m425 -28 c25 -4 -46 -7 -157 -7 -112 0 -203 3 -203 8 0 9 298
8 360 -1z m-377 -9 c-7 -2 -21 -2 -30 0 -10 3 -4 5 12 5 17 0 24 -2 18 -5z
m-75 -10 c-10 -2 -26 -2 -35 0 -10 3 -2 5 17 5 19 0 27 -2 18 -5z m555 0 c-7
-2 -21 -2 -30 0 -10 3 -4 5 12 5 17 0 24 -2 18 -5z m-628 -8 c-33 -13 -168
-45 -172 -41 -3 3 15 9 38 15 24 6 55 15 69 20 24 8 86 14 65 6z m562 -11
c577 -85 1078 -452 1335 -975 131 -269 187 -546 174 -859 -17 -379 -131 -691
-366 -1001 -63 -82 -222 -242 -307 -308 -94 -73 -221 -152 -336 -206 -62 -30
-105 -54 -97 -55 8 -1 -3 -8 -25 -16 -22 -8 -45 -12 -52 -10 -7 3 -12 0 -10
-7 1 -6 -9 -13 -22 -15 -15 -2 -21 0 -17 7 4 7 1 8 -8 5 -9 -3 -16 -10 -16
-15 0 -5 -12 -6 -26 -3 -18 5 -25 3 -20 -4 8 -13 -48 -27 -65 -16 -7 4 -9 3
-6 -3 13 -21 -164 -38 -383 -38 -182 1 -232 4 -328 23 -639 128 -1149 572
-1355 1182 -63 184 -78 280 -84 517 -6 230 1 311 43 475 71 284 217 556 416
773 26 29 48 55 48 58 0 22 244 222 259 212 5 -3 13 0 17 6 4 8 3 9 -4 5 -25
-15 -10 3 16 20 26 17 27 17 12 -1 -14 -17 -14 -17 7 -5 12 8 21 18 20 23 -2
10 230 137 248 136 6 0 -28 -20 -75 -44 -47 -24 -81 -44 -77 -44 4 -1 31 11
59 25 139 70 355 137 516 159 137 18 383 18 509 -1z m148 6 c25 -11 -1 -11
-35 0 -20 6 -21 8 -5 8 11 0 29 -3 40 -8z m141 -34 c67 -20 184 -66 132 -52
-28 8 -191 57 -218 66 -60 20 14 8 86 -14z m-1077 -20 c-8 -8 -123 -46 -126
-42 -5 5 97 45 116 45 8 1 12 -1 10 -3z m1361 -93 c47 -25 90 -50 95 -55 6 -6
-28 9 -75 34 -47 24 -101 52 -120 61 -23 12 -27 15 -10 11 14 -3 63 -26 110
-51z m969 -1896 c-6 -40 -14 -66 -16 -60 -3 7 0 36 6 63 6 28 12 65 12 83 1
25 3 27 6 9 3 -13 -1 -56 -8 -95z m-24 -117 c-4 -17 -9 -29 -12 -26 -3 2 -2
19 2 36 4 17 9 29 12 26 3 -2 2 -19 -2 -36z m-18 -62 c-3 -8 -6 -5 -6 6 -1 11
2 17 5 13 3 -3 4 -12 1 -19z m-23 -82 c-18 -53 -30 -58 -13 -5 6 19 13 40 15
48 3 8 7 12 9 9 3 -2 -2 -26 -11 -52z m-105 -246 c-40 -78 -79 -146 -88 -153
-8 -7 0 13 18 43 18 30 56 103 84 162 29 59 53 103 55 98 2 -5 -29 -73 -69
-150z m-108 -192 c-6 -7 -42 -53 -80 -103 -61 -80 -176 -199 -267 -277 -79
-66 -264 -189 -264 -174 0 3 21 17 48 32 162 94 385 298 504 461 33 46 63 81
65 79 3 -3 0 -11 -6 -18z m-621 -563 c0 -6 -96 -55 -107 -55 -9 0 87 57 100
59 4 1 7 -1 7 -4z m-120 -60 c0 -6 -88 -45 -98 -44 -6 0 88 48 96 49 1 0 2 -2
2 -5z"/>
<path d="M2243 4153 c9 -2 25 -2 35 0 9 3 1 5 -18 5 -19 0 -27 -2 -17 -5z"/>
<path d="M2178 4143 c6 -2 18 -2 25 0 6 3 1 5 -13 5 -14 0 -19 -2 -12 -5z"/>
<path d="M2105 4130 c-13 -5 -14 -9 -5 -9 8 0 24 4 35 9 13 5 14 9 5 9 -8 0
-24 -4 -35 -9z"/>
<path d="M1990 4101 c-198 -64 -394 -169 -560 -301 -462 -369 -696 -913 -650
-1507 6 -81 13 -150 16 -154 2 -4 9 -34 15 -66 30 -176 165 -482 283 -646 187
-261 384 -431 651 -562 127 -63 278 -115 420 -145 142 -31 449 -39 597 -16
185 29 369 86 513 158 77 39 184 102 210 123 16 14 14 13 -10 -1 -137 -83
-325 -168 -444 -200 -193 -54 -226 -58 -486 -58 -222 0 -262 2 -354 22 -280
60 -538 182 -747 353 -87 71 -194 175 -194 189 0 6 -21 36 -47 68 -244 299
-383 691 -383 1085 0 400 134 777 389 1096 28 35 51 67 51 71 0 12 142 147
215 203 153 119 329 211 525 278 91 31 82 39 -10 10z"/>
<path d="M1614 3964 c-18 -14 -18 -15 4 -4 12 6 22 13 22 15 0 8 -5 6 -26 -11z"/>
<path d="M2292 3766 c-89 -18 -168 -38 -174 -44 -9 -9 -9 -30 1 -89 7 -43 16
-82 21 -87 4 -4 22 -5 40 -1 26 6 31 11 27 28 -11 43 -19 97 -16 97 2 0 60 11
128 24 69 14 128 23 132 21 4 -3 10 -26 14 -51 3 -26 9 -53 12 -60 7 -18 73
-19 73 -1 0 18 -28 160 -35 180 -9 23 -29 21 -223 -17z"/>
<path d="M2831 3761 c-21 -21 -75 -176 -67 -190 3 -5 19 -11 36 -13 28 -4 30
-2 51 59 11 34 24 65 28 67 6 4 236 -70 250 -80 2 -2 -9 -38 -23 -80 -14 -43
-25 -78 -23 -79 28 -12 156 -105 198 -143 31 -29 60 -52 64 -52 4 0 36 26 72
57 l66 58 69 -75 c38 -41 78 -87 88 -101 l20 -27 -74 -66 -75 -67 29 -54 c16
-30 43 -93 61 -140 37 -98 33 -96 164 -69 42 9 79 13 82 10 10 -9 53 -249 47
-255 -3 -3 -49 -15 -102 -26 l-97 -20 -7 -100 c-4 -55 -9 -125 -10 -155 l-3
-55 90 -32 c50 -17 94 -33 99 -35 7 -3 -66 -239 -79 -255 -1 -2 -41 11 -90 27
-49 17 -97 30 -106 30 -11 0 -30 -21 -49 -55 -17 -30 -51 -81 -75 -115 -25
-33 -45 -68 -45 -77 0 -9 27 -47 60 -84 33 -37 60 -72 60 -77 0 -6 -44 -49
-97 -96 l-98 -85 -40 47 c-22 26 -54 62 -71 79 l-32 33 -132 -64 c-72 -35
-134 -67 -138 -70 -3 -3 3 -51 13 -106 10 -55 16 -102 14 -104 -2 -2 -61 -15
-131 -28 l-127 -24 -9 40 c-6 23 -13 61 -17 86 -4 25 -10 51 -14 58 -5 9 -51
13 -166 14 l-158 2 -29 -78 c-15 -44 -30 -82 -33 -85 -6 -5 -107 25 -202 61
l-52 19 25 71 c13 39 24 76 24 82 0 6 -42 33 -93 59 -51 26 -116 65 -143 86
l-50 38 -55 -48 c-30 -27 -57 -49 -61 -49 -4 0 -45 45 -92 100 l-86 101 47 41
c27 22 49 44 50 47 2 3 -7 18 -20 34 l-22 27 -72 -66 c-40 -36 -73 -72 -73
-81 0 -24 242 -293 264 -293 10 0 46 24 80 53 34 29 68 58 77 65 14 11 28 5
89 -37 40 -28 76 -51 81 -53 5 -2 -6 -49 -25 -105 -27 -79 -32 -105 -23 -116
15 -19 334 -129 360 -125 25 4 30 13 67 118 l30 85 99 -9 98 -9 12 -66 c19
-102 30 -138 46 -144 21 -9 367 61 382 76 11 11 10 31 -8 116 -11 56 -19 103
-17 104 1 1 42 21 90 44 l87 42 63 -74 c67 -81 90 -95 116 -73 82 70 259 224
264 233 15 20 7 36 -60 112 l-69 77 55 80 c30 45 55 82 56 83 2 2 42 -11 91
-27 137 -46 123 -58 194 148 34 99 59 186 55 195 -3 10 -45 29 -105 49 l-98
32 6 95 c3 53 8 98 10 101 3 3 48 14 100 25 64 13 100 26 107 37 13 21 -49
355 -70 378 -12 12 -24 12 -86 1 -40 -7 -87 -15 -104 -18 -31 -5 -32 -4 -74
83 l-42 88 76 70 c42 39 76 78 76 88 0 16 -220 275 -247 291 -17 10 -36 -2
-122 -76 l-63 -56 -70 49 c-38 27 -75 51 -81 53 -8 3 -2 35 22 107 32 99 33
103 15 120 -11 10 -95 43 -187 73 -163 54 -169 55 -186 38z"/>
<path d="M2486 3554 c4 -16 9 -32 13 -35 3 -4 71 -12 150 -18 124 -10 147 -10
159 3 8 8 12 21 9 28 -7 18 -116 39 -240 46 l-98 5 7 -29z"/>
<path d="M1694 3484 c-140 -122 -184 -164 -184 -174 0 -15 101 -131 112 -128
5 2 17 16 26 30 16 26 15 28 -11 56 -15 15 -27 32 -26 38 0 5 44 46 96 92 l97
83 37 -37 38 -37 30 19 30 20 -55 62 c-31 34 -64 62 -73 62 -10 0 -63 -39
-117 -86z"/>
<path d="M2168 3528 c-16 -5 -28 -14 -28 -18 0 -16 -161 -90 -184 -85 -12 3
-31 -3 -46 -15 l-25 -20 33 -30 c18 -17 39 -30 47 -30 8 0 40 15 71 34 31 19
84 45 116 57 32 12 57 24 54 26 -6 6 -153 -54 -204 -83 -24 -14 -46 -23 -49
-21 -7 8 109 65 197 98 71 26 75 28 71 55 -5 48 -8 49 -53 32z"/>
<path d="M3070 3411 c0 -13 18 -29 53 -49 28 -16 83 -53 122 -82 38 -28 71
-47 73 -41 5 16 -103 110 -184 160 -60 36 -64 37 -64 12z"/>
<path d="M2422 3338 c-7 -7 -12 -38 -12 -74 l0 -62 -44 -11 c-24 -6 -50 -13
-59 -16 -10 -5 -24 10 -47 50 -18 31 -38 59 -44 61 -15 6 -226 -114 -226 -129
0 -5 14 -36 32 -68 l32 -58 -41 -40 c-22 -23 -46 -41 -52 -41 -6 0 -33 14 -59
30 -27 17 -54 30 -60 30 -14 0 -134 -209 -128 -225 2 -7 30 -27 61 -45 42 -24
54 -36 50 -50 -3 -9 -11 -37 -18 -61 l-13 -44 -72 -3 -73 -3 3 -132 3 -132 71
-3 71 -3 16 -57 c8 -31 14 -59 11 -63 -2 -4 -29 -21 -59 -38 -30 -17 -55 -36
-55 -43 0 -19 121 -218 132 -218 6 0 35 14 65 31 l55 32 45 -46 46 -45 -34
-61 c-21 -39 -30 -64 -24 -70 18 -18 204 -121 217 -121 7 0 28 27 47 59 l33
58 59 -15 58 -16 3 -71 3 -70 135 0 135 0 3 70 3 71 60 15 60 16 31 -54 c17
-30 37 -57 44 -60 17 -6 213 103 221 123 3 7 -9 39 -27 70 l-32 57 45 45 45
45 57 -32 c31 -18 63 -30 70 -28 18 7 126 197 123 215 -2 9 -29 31 -60 49
l-57 33 14 41 c8 23 15 50 15 60 0 17 8 19 69 19 46 0 72 4 80 14 8 9 11 54 9
132 l-3 119 -74 5 -74 5 -17 62 -17 61 59 33 c32 18 58 39 58 48 0 17 -107
208 -121 217 -5 3 -34 -8 -64 -25 -30 -17 -60 -31 -67 -30 -7 0 -30 20 -51 44
l-38 43 31 52 c17 29 30 59 28 67 -3 14 -198 133 -218 133 -5 0 -24 -25 -41
-55 -17 -30 -34 -57 -38 -59 -4 -3 -32 3 -63 11 l-57 16 -3 71 -3 71 -125 3
c-89 2 -129 -1 -138 -10z m220 -105 l3 -67 80 -23 c44 -12 88 -23 97 -23 10 0
29 22 48 55 17 30 33 55 35 55 8 0 145 -82 145 -87 0 -3 -14 -31 -31 -62 l-31
-57 67 -67 c37 -37 72 -67 77 -67 6 0 34 14 64 30 l53 31 40 -69 c23 -37 41
-72 41 -78 0 -5 -25 -22 -55 -39 -31 -16 -55 -36 -55 -45 1 -8 11 -51 24 -95
l24 -80 68 -5 69 -5 3 -87 3 -87 -72 -3 -72 -3 -23 -85 c-13 -47 -23 -90 -24
-95 0 -6 25 -25 55 -43 30 -18 55 -36 55 -39 0 -11 -70 -132 -80 -138 -5 -3
-32 8 -60 25 -28 16 -54 30 -58 30 -4 0 -38 -31 -76 -69 l-69 -69 32 -56 c18
-31 30 -60 27 -65 -6 -9 -129 -81 -140 -81 -2 0 -20 25 -38 56 -37 62 -22 59
-153 26 l-70 -18 -3 -67 -3 -67 -89 0 -89 0 -3 67 -3 66 -85 23 c-47 13 -89
24 -95 24 -5 0 -23 -25 -40 -55 -16 -30 -32 -55 -36 -55 -9 0 -131 68 -142 79
-5 5 5 31 22 58 17 28 31 55 31 61 0 5 -30 40 -67 77 l-68 68 -54 -29 c-30
-16 -57 -30 -61 -32 -7 -2 -90 129 -90 142 0 2 25 19 55 36 30 17 55 37 55 44
0 22 -40 170 -48 178 -4 4 -36 8 -72 10 l-65 3 -3 82 -3 82 33 6 c19 4 38 6
43 5 6 -2 24 -2 41 -1 30 1 32 3 49 74 9 39 21 80 26 89 11 21 -8 41 -65 70
-22 11 -43 22 -45 24 -1 1 16 37 39 79 l42 76 54 -31 c29 -16 59 -30 64 -30
14 0 140 124 140 138 0 6 -14 34 -32 62 -18 30 -28 54 -22 59 5 5 39 25 75 45
73 40 69 41 109 -31 13 -24 28 -43 34 -43 6 0 50 10 99 22 l87 23 0 67 0 68
90 0 89 0 3 -67z"/>
<path d="M2424 3040 c-162 -32 -331 -161 -408 -310 -65 -125 -85 -299 -50
-434 57 -222 253 -401 484 -442 306 -54 617 149 690 451 6 28 12 96 12 151 -1
170 -55 299 -176 419 -78 77 -178 134 -281 160 -62 16 -202 18 -271 5z m256
-51 c123 -28 270 -131 337 -237 199 -311 56 -712 -297 -832 -78 -27 -216 -32
-300 -11 -98 24 -189 77 -265 155 -109 111 -158 228 -159 381 -1 260 171 480
429 545 45 12 204 11 255 -1z"/>
<path d="M2502 2967 c-28 -29 -28 -67 -2 -95 43 -46 120 -15 120 48 0 63 -75
93 -118 47z m68 -47 c0 -13 -7 -20 -20 -20 -19 0 -27 20 -13 33 13 14 33 6 33
-13z"/>
<path d="M2172 2834 c-47 -32 -16 -124 42 -124 13 0 35 9 50 21 72 56 -17 156
-92 103z m66 -51 c-5 -26 -38 -29 -38 -4 0 15 6 21 21 21 14 0 19 -5 17 -17z"/>
<path d="M2831 2824 c-27 -35 -26 -59 4 -89 63 -63 160 18 105 88 -29 37 -80
37 -109 1z m75 -53 c-9 -14 -33 -14 -41 -1 -4 6 -1 18 6 26 11 13 14 13 27 0
8 -8 11 -19 8 -25z"/>
<path d="M2492 2830 c-77 -11 -173 -62 -221 -117 -178 -202 -119 -502 121
-614 66 -30 82 -34 158 -33 121 1 185 27 271 113 49 49 71 81 87 124 42 111
39 210 -9 312 -48 102 -170 197 -270 210 -24 4 -53 8 -64 9 -11 2 -44 0 -73
-4z m141 -55 c100 -26 174 -87 223 -185 24 -47 28 -67 29 -140 0 -73 -4 -93
-28 -142 -36 -74 -96 -134 -165 -166 -76 -36 -202 -38 -274 -5 -248 114 -272
464 -40 600 87 51 162 62 255 38z"/>
<path d="M2456 2700 c-58 -23 -119 -78 -149 -135 -16 -30 -21 -58 -21 -115 0
-64 4 -83 29 -128 91 -167 318 -192 440 -50 179 210 -43 528 -299 428z m124
-85 c0 -54 0 -55 -30 -55 -30 0 -30 1 -30 55 0 54 0 55 30 55 30 0 30 -1 30
-55z m-110 -25 l0 -60 -60 0 c-33 0 -60 3 -60 6 0 29 83 113 113 114 4 0 7
-27 7 -60z m200 45 c31 -16 80 -74 80 -94 0 -8 -18 -11 -57 -9 l-58 3 -3 58
c-2 31 0 57 3 57 3 0 19 -7 35 -15z m-70 -145 c33 -33 20 -83 -26 -100 -42
-16 -84 13 -84 59 0 55 70 81 110 41z m-160 -40 c0 -30 -1 -30 -55 -30 -54 0
-55 0 -55 30 0 30 1 30 55 30 54 0 55 0 55 -30z m330 0 c0 -30 -1 -30 -53 -30
l-54 0 5 30 c4 29 6 30 53 30 48 0 49 -1 49 -30z m-300 -146 c0 -71 1 -70 -58
-27 -27 20 -62 69 -62 88 0 3 27 5 60 5 l60 0 0 -66z m280 50 c0 -22 -82 -104
-104 -104 -13 0 -16 11 -16 53 0 30 3 57 7 60 3 4 30 7 60 7 42 0 53 -3 53
-16z m-170 -69 c0 -54 0 -55 -30 -55 -30 0 -30 1 -30 55 0 54 0 55 30 55 30 0
30 -1 30 -55z"/>
<path d="M2032 2497 c-44 -46 -14 -117 48 -117 65 0 94 79 44 119 -35 27 -65
27 -92 -2z m66 -50 c2 -12 -3 -17 -17 -17 -15 0 -21 6 -21 21 0 25 33 22 38
-4z"/>
<path d="M2975 2495 c-30 -30 -31 -54 -4 -89 51 -65 153 -1 114 73 -24 48 -72
55 -110 16z m73 -42 c5 -17 -26 -29 -40 -15 -6 6 -7 15 -3 22 9 14 37 9 43 -7z"/>
<path d="M2200 2183 c-69 -25 -67 -112 3 -136 22 -8 72 16 81 38 21 55 -32
117 -84 98z m37 -59 c8 -21 -13 -42 -28 -27 -13 13 -5 43 11 43 6 0 13 -7 17
-16z"/>
<path d="M2835 2160 c-39 -43 -9 -110 50 -110 18 0 39 8 48 18 22 25 21 75 -1
95 -25 23 -75 21 -97 -3z m68 -37 c4 -3 2 -12 -4 -20 -9 -10 -15 -10 -25 -2
-8 6 -11 15 -8 20 6 11 28 12 37 2z"/>
<path d="M2507 2030 c-53 -42 -23 -120 46 -120 41 0 67 26 67 66 0 63 -63 93
-113 54z m63 -50 c0 -13 -7 -20 -20 -20 -19 0 -27 20 -13 33 13 14 33 6 33
-13z"/>
<path d="M1650 3195 c-18 -20 -22 -30 -14 -42 14 -23 -89 -179 -116 -175 -13
2 -24 -7 -35 -28 -15 -30 -15 -30 10 -40 42 -16 49 -13 79 43 16 28 55 87 88
129 32 43 58 81 58 86 0 5 -10 18 -23 30 l-23 22 -24 -25z"/>
<path d="M1698 3112 c-42 -47 -89 -114 -117 -169 -24 -48 -25 -53 -11 -53 5 0
27 30 49 68 22 37 58 91 80 121 37 49 48 71 37 71 -2 0 -19 -17 -38 -38z"/>
<path d="M1324 3033 c-6 -5 -39 -87 -72 -184 -48 -141 -58 -180 -49 -191 7 -9
44 -27 83 -41 l72 -26 6 31 c9 45 9 44 -35 58 -22 8 -42 17 -44 20 -3 4 14 62
38 129 46 134 38 127 114 105 17 -5 25 0 37 24 l16 31 -55 20 c-73 27 -98 33
-111 24z"/>
<path d="M1376 2628 c-5 -24 -2 -36 9 -44 13 -10 14 -27 9 -108 -4 -53 -11
-96 -15 -96 -5 0 -9 -18 -9 -40 0 -41 4 -44 48 -32 22 7 23 11 26 152 2 80 6
152 10 161 5 12 1 18 -17 23 -14 3 -32 8 -40 12 -10 3 -16 -5 -21 -28z"/>
<path d="M1465 2610 c-12 -19 -19 -235 -8 -254 7 -13 12 22 16 120 3 77 4 140
2 142 -2 2 -6 -2 -10 -8z"/>
<path d="M3481 2604 c0 -11 3 -14 6 -6 3 7 2 16 -1 19 -3 4 -6 -2 -5 -13z"/>
<path d="M3491 2442 c-1 -87 -7 -173 -17 -220 -36 -173 -137 -357 -269 -487
-83 -82 -129 -116 -237 -175 -88 -48 -82 -53 11 -7 248 122 419 323 497 582
21 72 27 117 31 225 2 74 0 155 -5 180 -8 37 -10 19 -11 -98z"/>
<path d="M1252 2353 c-59 -13 -73 -19 -77 -37 -7 -25 61 -366 75 -380 6 -6 43
-4 104 8 l95 18 -13 31 c-14 34 -27 38 -97 24 l-36 -7 -22 112 c-12 62 -25
123 -28 134 -4 20 1 23 46 29 59 8 65 14 56 55 -7 34 -4 33 -103 13z"/>
<path d="M1462 2043 c-20 -4 -23 -9 -17 -31 4 -15 12 -34 19 -42 7 -8 25 -40
38 -71 14 -31 42 -82 62 -114 36 -55 38 -57 57 -40 26 25 24 47 -10 102 -16
27 -46 83 -66 126 -21 42 -42 76 -49 76 -6 -1 -22 -4 -34 -6z"/>
<path d="M1811 1546 c-9 -11 -4 -20 26 -43 51 -40 128 -86 187 -112 58 -25 56
-25 56 -3 0 10 -18 27 -47 42 -26 14 -80 49 -119 78 -78 56 -86 59 -103 38z"/>
<path d="M2355 1300 c-3 -5 22 -10 54 -12 33 -1 57 0 53 3 -11 10 -102 17
-107 9z"/>
<path d="M2493 1283 c9 -2 25 -2 35 0 9 3 1 5 -18 5 -19 0 -27 -2 -17 -5z"/>
<path d="M3559 1043 c-13 -16 -12 -17 4 -4 16 13 21 21 13 21 -2 0 -10 -8 -17
-17z"/>
<path d="M3412 4217 c-48 -51 -10 -147 57 -147 43 0 60 9 77 42 12 24 13 36 4
64 -21 64 -96 86 -138 41z m78 -32 c20 -25 8 -50 -25 -50 -21 0 -31 5 -33 18
-4 21 14 47 33 47 7 0 18 -7 25 -15z"/>
<path d="M1401 4124 c-28 -36 -26 -76 5 -113 33 -40 83 -43 119 -6 35 34 30
88 -10 128 -27 27 -90 22 -114 -9z m88 -31 c21 -38 -31 -72 -58 -39 -9 11 -10
20 -1 35 13 25 45 27 59 4z"/>
<path d="M3703 4024 c-66 -66 25 -190 103 -140 52 35 56 95 9 142 -33 32 -78
32 -112 -2z m92 -45 c9 -28 -16 -53 -43 -45 -43 14 -37 66 8 66 20 0 31 -6 35
-21z"/>
<path d="M3540 3977 c0 -2 21 -18 48 -36 35 -25 40 -26 17 -6 -30 26 -65 49
-65 42z"/>
<path d="M1263 3840 c0 -25 2 -35 4 -22 2 12 2 32 0 45 -2 12 -4 2 -4 -23z"/>
<path d="M3816 3745 c113 -113 157 -165 226 -270 145 -220 239 -444 289 -691
30 -150 38 -472 15 -623 -17 -113 -16 -147 2 -54 96 492 -28 1020 -334 1430
-67 89 -226 258 -299 316 -22 18 24 -31 101 -108z"/>
<path d="M1031 3783 c-17 -15 -34 -42 -37 -60 -5 -27 -1 -37 24 -63 41 -40 72
-39 111 5 51 59 34 128 -35 141 -25 5 -37 1 -63 -23z m80 -39 c17 -21 0 -49
-32 -49 -24 0 -36 23 -25 51 7 19 40 18 57 -2z"/>
<path d="M3959 3781 c-34 -35 -36 -62 -9 -106 31 -51 86 -60 125 -20 36 35 34
88 -4 126 -18 17 -40 29 -56 29 -16 0 -38 -12 -56 -29z m89 -47 c4 -27 -21
-47 -48 -39 -20 6 -28 44 -13 59 15 15 58 1 61 -20z"/>
<path d="M3790 3725 c13 -14 26 -23 28 -20 7 7 -29 45 -41 45 -6 0 0 -11 13
-25z"/>
<path d="M3920 3585 c13 -14 25 -25 27 -25 9 0 -33 49 -41 50 -5 0 1 -11 14
-25z"/>
<path d="M843 3515 c-86 -36 -63 -172 28 -163 27 2 38 11 61 50 28 45 28 48
14 76 -20 39 -62 54 -103 37z m57 -50 c6 -8 9 -23 5 -35 -10 -31 -59 -24 -63
9 -6 37 34 55 58 26z"/>
<path d="M4200 3522 c-29 -9 -60 -46 -60 -72 0 -27 22 -66 48 -87 44 -36 122
7 122 66 0 53 -64 107 -110 93z m50 -63 c9 -15 8 -24 -1 -35 -27 -33 -78 0
-58 38 13 24 46 23 59 -3z"/>
<path d="M4040 3416 c0 -2 8 -10 18 -17 15 -13 16 -12 3 4 -13 16 -21 21 -21
13z"/>
<path d="M667 3185 c-48 -49 -41 -116 15 -143 46 -22 74 -7 98 53 25 61 18 89
-26 105 -40 15 -59 12 -87 -15z m91 -53 c4 -27 -33 -49 -54 -31 -17 14 -19 56
-1 62 21 7 52 -9 55 -31z"/>
<path d="M4335 3198 c-56 -32 -60 -85 -11 -134 38 -38 60 -42 96 -17 34 23 40
33 40 71 0 24 -9 42 -29 63 -31 30 -63 36 -96 17z m75 -61 c0 -24 -18 -39 -41
-35 -29 4 -38 37 -14 54 20 15 55 2 55 -19z"/>
<path d="M566 2837 c-31 -41 -33 -76 -5 -111 16 -20 29 -26 59 -26 46 0 56 11
71 80 11 51 10 55 -11 72 -12 10 -37 18 -56 18 -26 0 -39 -7 -58 -33z m88 -23
c29 -28 -10 -71 -46 -52 -21 10 -23 39 -6 56 16 16 33 15 52 -4z"/>
<path d="M4422 2863 c-7 -3 -19 -18 -28 -35 -18 -36 -5 -89 29 -113 31 -22 83
-19 108 6 28 28 22 104 -11 131 -21 17 -70 23 -98 11z m66 -45 c30 -30 -4 -77
-41 -57 -29 17 -15 69 18 69 6 0 16 -5 23 -12z"/>
<path d="M565 2516 c-33 -14 -55 -52 -55 -94 1 -69 86 -104 134 -56 20 19 22
127 4 142 -24 18 -53 21 -83 8z m63 -67 c4 -34 -20 -54 -47 -39 -38 20 -18 74
24 68 13 -2 21 -12 23 -29z"/>
<path d="M4312 1988 c-7 -28 -11 -53 -8 -55 2 -2 9 19 16 47 7 28 10 53 8 55
-3 3 -10 -18 -16 -47z"/>
<path d="M1262 1020 c0 -19 2 -27 5 -17 2 9 2 25 0 35 -3 9 -5 1 -5 -18z"/>
</g>
</svg>
